<svg xmlns="http://www.w3.org/2000/svg" xmlns:xlink="http://www.w3.org/1999/xlink" version="1.0" x="0px" y="0px" viewBox="0 0 100 100" enable-background="new 0 0 100 100" xml:space="preserve"><path d="M10,20v60h80V20H10z M89,79H11V31h78V79z M89,30H11v-9h78V30z"></path><g><polygon points="17,28.031 14,25.516 17,23  "></polygon></g><g><polygon points="20,23 23,25.516 20,28.031  "></polygon></g><path d="M20,34v30h60V34H20z M79,35v27.353c-2.114-1.923-12.327-11.054-15.576-11.054c-1.615,0-3.364,0.889-5.216,1.829  c-2.171,1.103-4.632,2.353-7.261,2.353c-2.225,0-4.475-3.428-6.65-6.742c-2.429-3.701-4.723-7.196-7.489-7.196  C32.132,41.542,23.41,57.38,21,61.93V35H79z M78.225,63H21.567c3.162-6.057,11.479-20.458,15.24-20.458  c2.226,0,4.477,3.429,6.653,6.745c2.428,3.699,4.722,7.193,7.486,7.193c2.868,0,5.442-1.308,7.714-2.461  c1.742-0.885,3.388-1.721,4.763-1.721C65.908,52.299,74.617,59.729,78.225,63z"></path><g><path d="M63,44.479c-1.378,0-2.5-1.121-2.5-2.5s1.122-2.5,2.5-2.5s2.5,1.121,2.5,2.5S64.378,44.479,63,44.479z M63,40.479   c-0.827,0-1.5,0.673-1.5,1.5s0.673,1.5,1.5,1.5s1.5-0.673,1.5-1.5S63.827,40.479,63,40.479z"></path></g><g><rect x="20" y="67" width="32" height="1"></rect></g><g><rect x="20" y="71" width="60" height="1"></rect></g><g><rect x="20" y="75" width="40" height="1"></rect></g></svg>